<?xml version="1.0" encoding="UTF-8"?>
<svg id="Capa_2" data-name="Capa 2" xmlns="http://www.w3.org/2000/svg" viewBox="0 0 962.74 224.23">
  <g id="Capa_1-2" data-name="Capa 1">
    <g>
      <g>
        <g>
          <path d="m401.12,171.42h-20.61v-77.92c0-3.54.1-7.43.3-11.68s.47-8.74.81-13.47h-.6c-.68,3.31-1.33,6.13-1.92,8.47-.6,2.34-1.18,4.22-1.75,5.65l-35.58,88.96h-14.54l-35.75-88.28c-.46-1.25-1.01-3.11-1.67-5.56-.66-2.45-1.33-5.53-2.01-9.24h-.6c.34,4.28.58,8.73.73,13.35.14,4.62.21,9.44.21,14.46v75.27h-19.25V48.75h29.42l31.48,79.3c1.06,2.66,2.1,5.43,3.12,8.3.87,2.44,1.68,4.84,2.44,7.19l.41-1.33c.77-2.47,1.6-4.99,2.5-7.57.81-2.35,1.64-4.63,2.48-6.84l31.82-79.04h28.57v122.66Z" style="fill: #616161;"/>
          <path d="m430.59,69.5c-3.71,0-6.77-1.17-9.19-3.51-2.43-2.34-3.64-5.22-3.64-8.64,0-3.59,1.21-6.53,3.64-8.81,2.42-2.28,5.49-3.42,9.19-3.42s6.78,1.14,9.24,3.42c2.45,2.28,3.68,5.22,3.68,8.81s-1.23,6.37-3.68,8.68c-2.45,2.31-5.53,3.47-9.24,3.47Zm10.01,105.55h-20.36v-89.73h20.36v89.73Z" style="fill: #616161;"/>
          <path d="m527.21,165.6c-4.45,2.79-8.91,4.82-13.39,6.07-4.48,1.25-9.31,1.88-14.5,1.88-13.8,0-24.82-4.05-33.06-12.15-8.24-8.1-12.36-19.02-12.36-32.76,0-15,4.31-26.93,12.91-35.8,8.61-8.87,20.19-13.3,34.74-13.3,5.02,0,9.61.54,13.77,1.63,4.16,1.08,8.35,2.82,12.57,5.22l-8.04,14.2c-2.97-1.71-5.89-2.95-8.77-3.72s-5.97-1.16-9.28-1.16c-8.67,0-15.35,2.84-20.06,8.51s-7.06,13.24-7.06,22.71,2.5,17.27,7.49,22.54c4.99,5.28,11.33,7.91,19.03,7.91,2.51,0,5.29-.43,8.34-1.28,3.05-.86,6.15-2.31,9.28-4.36l8.38,13.86Z" style="fill: #616161;"/>
          <path d="m583.56,99.56c-1.14-.28-2.26-.51-3.34-.68s-2.34-.26-3.76-.26c-7.13,0-12.64,2.69-16.55,8.08-3.9,5.39-5.86,12.45-5.86,21.17v44.31h-20.44v-89.73h20.44v17.28h.34c2.05-6.21,5.13-10.91,9.24-14.07,4.11-3.16,8.95-4.75,14.54-4.75,1.54,0,2.97.09,4.28.26,1.31.17,2.57.43,3.76.77l-2.65,17.62Z" style="fill: #616161;"/>
          <path d="m631.98,173.55c-14.09,0-25.24-4.21-33.45-12.62-8.21-8.41-12.32-19.66-12.32-33.74.06-14.94,4.32-26.62,12.79-35.03,8.47-8.41,20-12.62,34.6-12.62,14.03-.06,25.02,4.08,32.97,12.4,7.96,8.33,11.93,19.59,11.93,33.79s-4.19,26.22-12.58,34.86c-8.38,8.64-19.7,12.96-33.96,12.96Zm.94-16.17c8.1,0,14.26-2.67,18.48-8,4.22-5.33,6.33-13.04,6.33-23.14s-2.13-17.49-6.37-22.71c-4.25-5.22-10.42-7.83-18.52-7.83s-14.36,2.75-18.95,8.26c-4.59,5.5-6.88,13.13-6.88,22.88s2.27,17.28,6.8,22.58c4.53,5.3,10.91,7.96,19.12,7.96Z" style="fill: #616161;"/>
          <path d="m678.52,168.04l8.9-14.37c3.42,2.39,7.08,4.33,10.99,5.81,3.91,1.49,8.2,2.22,12.88,2.22,5.02,0,8.92-.91,11.72-2.74,2.79-1.82,4.19-4.59,4.19-8.3,0-2.97-1.19-5.42-3.55-7.36-2.36-1.94-6.29-3.56-11.76-4.88-11.18-2.62-19-6.1-23.48-10.44-4.48-4.33-6.71-10.04-6.71-17.11,0-8.16,3.21-14.81,9.62-19.97,6.42-5.16,14.7-7.74,24.85-7.74,5.02,0,9.81.64,14.37,1.92,4.56,1.28,8.98,3.32,13.26,6.12l-8.04,13.94c-3.82-2.39-7.31-4.11-10.48-5.13-3.17-1.03-6.43-1.54-9.79-1.54-4.85,0-8.63.91-11.33,2.74-2.71,1.83-4.07,4.36-4.07,7.61s1.3,5.69,3.9,7.31c2.59,1.63,7.11,3.21,13.55,4.75,9.75,2.34,16.9,5.7,21.43,10.09,4.53,4.39,6.8,10.29,6.8,17.71,0,8.61-3.18,15.51-9.54,20.7-6.36,5.19-14.92,7.78-25.7,7.78-5.87,0-11.46-.77-16.76-2.31-5.31-1.54-10.38-3.82-15.23-6.84Z" style="fill: #616161;"/>
          <path d="m791.52,173.55c-14.09,0-25.24-4.21-33.45-12.62-8.21-8.41-12.32-19.66-12.32-33.74.06-14.94,4.32-26.62,12.79-35.03,8.47-8.41,20-12.62,34.6-12.62,14.03-.06,25.02,4.08,32.97,12.4,7.96,8.33,11.93,19.59,11.93,33.79s-4.19,26.22-12.58,34.86c-8.38,8.64-19.7,12.96-33.96,12.96Zm.94-16.17c8.1,0,14.26-2.67,18.48-8,4.22-5.33,6.33-13.04,6.33-23.14s-2.13-17.49-6.37-22.71c-4.25-5.22-10.42-7.83-18.52-7.83s-14.36,2.75-18.95,8.26c-4.59,5.5-6.88,13.13-6.88,22.88s2.27,17.28,6.8,22.58c4.53,5.3,10.91,7.96,19.12,7.96Z" style="fill: #616161;"/>
          <g>
            <path d="m890.4,57.22c-1.65-.68-3.14-1.16-4.45-1.41-1.31-.26-2.74-.39-4.28-.39-4.33,0-7.59,1.21-9.75,3.64-2.17,2.42-3.25,5.89-3.25,10.39v11.7c0,.3.24.53.53.53h26.47c.3,0,4.4-.3,4.4,0l-3.87,15.29c6.69.53,2.7.53,2.4.53h-29.41c-.3,0-.53.24-.53.53v72.84c0,.3-.24.53-.53.53h-19.2c-.3,0-.53-.24-.53-.53v-72.84c0-.3-.24-.53-.53-.53h-13.98c-.3,0-.53-.24-.53-.53v-14.75c0-.3.24-.53.53-.53h13.98c.3,0,.53-.24.53-.53v-12.81c0-8.95,2.91-16.05,8.73-21.3,5.82-5.25,13.55-7.87,23.18-7.87,2.97,0,5.56.2,7.79.6,2.06.37,4.22.91,6.48,1.63.28.09.46.4.37.69l-4.55,15.14Z" style="fill: #616161;"/>
            <path d="m946.09,169.27c.19.64-.13,1.33-.75,1.58-2.25.91-4.6,1.58-7.05,2.02-2.85.51-5.9.77-9.15.77-8.39,0-14.81-2.21-19.29-6.63-4.48-4.42-6.71-10.99-6.71-19.71v-48.25c0-.71-.57-1.28-1.28-1.28h-12.41c-.71,0-1.28-.57-1.28-1.28v-13.26c0-.71.57-1.28,1.28-1.28h12.41c.71,0,1.28-.57,1.28-1.28v-18.13c0-.56.37-1.06.91-1.23l17.79-5.38c.82-.25,1.65.37,1.65,1.23v23.51c0,.71.57,1.28,1.28,1.28h18.91c.71,0,1.28.57,1.28,1.28v13.26c0,.71-.57,1.28-1.28,1.28h-18.91c-.71,0-1.28.57-1.28,1.28v46.45c0,4.45.82,7.64,2.44,9.58,1.63,1.94,4.12,2.91,7.49,2.91,1.65,0,3.22-.18,4.7-.56s2.82-.87,4.02-1.5l3.94,13.33Z" style="fill: #616161;"/>
          </g>
        </g>
        <rect x="21.63" y="14.6" width="90.7" height="90.7" rx="1.19" ry="1.19" style="fill: #e73b2a;"/>
        <rect x="122.48" y="14.6" width="91.93" height="89.1" rx="1.32" ry="1.32" style="fill: #49ad32;"/>
        <rect x="122.48" y="114.75" width="91.93" height="91.93" rx="1.55" ry="1.55" style="fill: #f8ab16;"/>
        <rect x="21.81" y="115.55" width="90.34" height="90.34" rx="1.86" ry="1.86" style="fill: #3888c9;"/>
      </g>
      <rect width="962.74" height="224.23" style="fill: none;"/>
    </g>
  </g>
</svg>